<svg width="15" height="15" viewBox="0 0 15 15" fill="none" xmlns="http://www.w3.org/2000/svg">
<path d="M13.2108 3.63574C12.9187 3.63574 12.6332 3.55235 12.3904 3.39611C12.1476 3.23988 11.9584 3.01781 11.8466 2.758C11.7348 2.49818 11.7056 2.21229 11.7626 1.93647C11.8195 1.66066 11.9602 1.4073 12.1667 1.20845C12.3732 1.0096 12.6363 0.874181 12.9227 0.819311C13.2091 0.764451 13.506 0.792611 13.7758 0.900231C14.0456 1.00784 14.2762 1.19009 14.4385 1.42392C14.6007 1.65774 14.6873 1.93265 14.6873 2.21387C14.6877 2.4007 14.6498 2.58578 14.5758 2.75847C14.5017 2.93116 14.393 3.08807 14.2558 3.22018C14.1186 3.35229 13.9556 3.45701 13.7763 3.52833C13.597 3.59964 13.4048 3.63614 13.2108 3.63574ZM6.8125 4.58332C7.5913 4.58332 8.3526 4.80571 9.0002 5.22236C9.6477 5.63901 10.1524 6.23122 10.4504 6.92408C10.7485 7.617 10.8264 8.3794 10.6745 9.1149C10.5226 9.8505 10.1476 10.5261 9.5969 11.0564C9.0462 11.5867 8.3445 11.9478 7.5807 12.0941C6.8169 12.2404 6.0251 12.1654 5.3056 11.8784C4.5861 11.5914 3.97112 11.1054 3.53844 10.4818C3.10577 9.8582 2.87483 9.1251 2.87483 8.3752C2.87594 7.3698 3.29116 6.40599 4.02938 5.69511C4.76759 4.98424 5.7685 4.5844 6.8125 4.58332ZM6.8125 2.68766C5.6444 2.68766 4.50244 3.02122 3.53117 3.64617C2.55989 4.27112 1.80287 5.15939 1.35584 6.19864C0.908808 7.2379 0.791848 8.3815 1.01974 9.4847C1.24763 10.588 1.81015 11.6014 2.63615 12.3968C3.46216 13.1922 4.51455 13.7339 5.6602 13.9534C6.8059 14.1728 7.9935 14.0602 9.0727 13.6297C10.1519 13.1992 11.0744 12.4703 11.7234 11.535C12.3724 10.5997 12.7187 9.5 12.7187 8.3752C12.7187 6.86674 12.0965 5.4201 10.9888 4.35349C9.8812 3.28687 8.3789 2.68766 6.8125 2.68766Z" fill="white"/>
</svg>
